<?xml version="1.0" encoding="UTF-8"?>
<svg width="19px" height="11px" viewBox="0 0 19 11" version="1.1" xmlns="http://www.w3.org/2000/svg" xmlns:xlink="http://www.w3.org/1999/xlink">
    <!-- Generator: Sketch 58 (84663) - https://sketch.com -->
    <title>icon-vk</title>
    <desc>Created with Sketch.</desc>
    <g id="Specs" stroke="none" stroke-width="1" fill="none" fill-rule="evenodd">
        <g id="Desktop-1360" transform="translate(-621.000000, -203.000000)" fill="#303030" fill-rule="nonzero">
            <g id="Group-16" transform="translate(456.000000, 190.000000)">
                <g id="Group-13" transform="translate(142.000000, 0.000000)">
                    <path d="M41.1181446,13.9458521 L41.09566,14.0330404 C40.8499445,15.1718984 38.4626649,18.5320532 38.4593252,18.5353605 L38.3607304,18.7022389 C38.2356001,18.9345656 38.2230011,19.1010208 38.4593252,19.4052868 L38.5186069,19.4722299 C38.9203701,19.8989715 41.1122685,22.0313985 41.4575862,23.1074264 C41.6202616,23.658584 41.3380357,23.9375025 40.780231,23.9375025 L38.8245587,23.9375025 C38.0808299,23.9375025 37.8616703,23.343155 36.5335485,22.0150332 C35.4295472,20.9520623 34.9248609,20.7670528 34.6295076,20.7512093 L34.5845557,20.7500101 C33.9603125,20.7500101 34.0732158,20.9591828 34.0732158,23.1771398 L34.0670432,23.3223536 C34.0289599,23.7142132 33.7894301,23.9375025 32.6753805,23.9375025 C30.6034975,23.9375025 28.3257815,22.6790941 26.7087867,20.3582207 C24.2816246,16.9582158 23.6175637,14.3849798 23.6175637,13.8670252 C23.6175637,13.5748449 23.730467,13.3125279 24.2882717,13.3125279 L26.2439441,13.3125279 C26.7452971,13.3125279 26.9345609,13.531655 27.1271321,14.0728906 C28.0833733,16.8619464 29.6970608,19.2990305 30.3611217,19.2990305 C30.6101446,19.2990305 30.7230155,19.1828199 30.7230155,18.551962 L30.7230155,15.6699441 C30.6499947,14.3418223 29.9460837,14.2322587 29.9460837,13.760769 C29.9460837,13.5449492 30.1320078,13.3125279 30.4441294,13.3125279 L33.5187184,13.3125279 C33.9304492,13.3125279 34.0699085,13.5349948 34.0699085,14.0330404 L34.0699085,17.9078424 C34.0699085,18.3228805 34.2591399,18.4689544 34.3819976,18.4689544 C34.6310205,18.4689544 34.8401932,18.3228805 35.2950814,17.8679922 C36.7029035,16.2941549 37.6989949,13.8670252 37.6989949,13.8670252 C37.8218526,13.5748449 38.0509342,13.3125279 38.5489799,13.3125279 L40.5046523,13.3125279 C41.0534451,13.3125279 41.1985781,13.5759217 41.1181446,13.9458521 Z" id="icon-vk"></path>
                </g>
            </g>
        </g>
    </g>
</svg>