<svg height="25" viewBox="0 0 14 25" width="14" xmlns="http://www.w3.org/2000/svg"><g fill="#909090"><path d="m9 5.51785714v3.25c0 .06770867-.02176318.12332568-.06529018.16685268s-.09914401.06529018-.16685268.06529018h-2.32142857c-.06770867 0-.12332567-.02176318-.16685268-.06529018-.043527-.043527-.06529018-.09914401-.06529018-.16685268v-.46428571c0-.06770867.02176318-.12332568.06529018-.16685268.04352701-.043527.09914401-.06529018.16685268-.06529018h1.625v-2.55357143c0-.06770867.02176318-.12332567.06529018-.16685268.043527-.043527.09914401-.06529017.16685268-.06529017h.46428571c.06770867 0 .12332568.02176317.16685268.06529017.043527.04352701.06529018.09914401.06529018.16685268zm2.4882813 4.53404016c.3530523-.60454169.5295758-1.26469134.5295758-1.98046873s-.1765235-1.37592704-.5295758-1.98046875c-.3530524-.60454171-.8318423-1.08333157-1.436384-1.43638393-.60454169-.35305236-1.26469134-.52957589-1.98046873-.52957589s-1.37592704.17652353-1.98046875.52957589-1.08333157.83184222-1.43638393 1.43638393-.52957589 1.26469136-.52957589 1.98046875.17652353 1.37592704.52957589 1.98046873c.35305236.6045417.83184222 1.0833316 1.43638393 1.4363839.60454171.3530524 1.26469136.5295759 1.98046875.5295759s1.37592704-.1765235 1.98046873-.5295759c.6045417-.3530523 1.0833316-.8318422 1.436384-1.4363839zm1.407366-4.77343748c.4981424.85119473.7472098 1.78217501.7472098 2.79296875 0 1.01079375-.2490674 1.94298313-.7472098 2.79659603s-1.1740098 1.5294803-2.0276227 2.0276227-1.78580228.7472098-2.79659603.7472098c-1.01079374 0-1.94298308-.2490674-2.79659598-.7472098s-1.5294804-1.1740098-2.02762277-2.0276227-.74720982-1.78580228-.74720982-2.79659603c0-1.01079374.24906745-1.94298308.74720982-2.79659598s1.17400987-1.5294804 2.02762277-2.02762277 1.78580224-.74720982 2.79659598-.74720982c1.01079375 0 1.94298313.24906745 2.79659603.74720982s1.5294803 1.17521894 2.0276227 2.03125z" transform="translate(-1 -2)"/><path d="m13.5714286 7.82142857c-.7351228-1.14137475-1.6564305-1.99497485-2.7639509-2.56082589.2950163.5029787.4425223 1.04705808.4425223 1.63225446 0 .89472174-.3179842 1.66006007-.9539621 2.29603795-.63597784.63597788-1.40131616.95396201-2.2960379.95396201s-1.66006006-.31798413-2.29603795-.95396201c-.63597788-.63597788-.95396205-1.40131621-.95396205-2.29603795 0-.58519638.14750597-1.12927576.44252232-1.63225446-1.10752042.56585104-2.02882817 1.41945114-2.76395089 2.56082589.64323238.99144841 1.44967893 1.78096805 2.41936384 2.36858263.96968491.5876145 2.02036264.8814174 3.15206473.8814174s2.1823798-.2938029 3.1520647-.8814174c.9696849-.58761458 1.7761315-1.37713422 2.4193639-2.36858263zm-5.32477681-2.5390625c.06770867-.06770867.1015625-.14992511.1015625-.24665178 0-.09672668-.03385383-.17894312-.1015625-.24665179-.06770868-.06770867-.14992512-.1015625-.24665179-.1015625-.60454171 0-1.12323072.21642269-1.55608259.64927455-.43285187.43285187-.64927455.95154088-.64927455 1.55608259 0 .09672668.03385383.17894312.1015625.24665179s.14992511.1015625.24665178.1015625c.09672668 0 .17894312-.03385383.24665179-.1015625s.1015625-.14992511.1015625-.24665179c0-.4159247.14750596-.77138989.44252232-1.06640625.29501636-.29501635.65048155-.44252232 1.06640625-.44252232.09672667 0 .17894311-.03385383.24665179-.1015625zm6.10825891 2.03850447c.0967267.16927168.1450893.33612269.1450893.50055803 0 .16443535-.0483626.33128636-.1450893.50055804-.6770867 1.11235675-1.5875129 2.00343789-2.7313058 2.67327009s-2.35164914 1.0047433-3.6236049 1.0047433-2.47981199-.3361202-3.62360491-1.0083705c-1.14379292-.6722504-2.05421909-1.56212247-2.7313058-2.66964289-.09672668-.16927168-.14508929-.33612269-.14508929-.50055804 0-.16443534.04836261-.33128635.14508929-.50055803.67708671-1.10752042 1.58751288-1.99739248 2.7313058-2.66964286 1.14379292-.67225039 2.35164915-1.00837054 3.62360491-1.00837054s2.479812.33612015 3.6236049 1.00837054c1.1437929.67225038 2.0542191 1.56212244 2.7313058 2.66964286z" transform="translate(-1 13)"/></g></svg>