<svg height="112" viewBox="0 0 18 112" width="18" xmlns="http://www.w3.org/2000/svg"><g fill="#303030"><path d="m15.5073063 12.4374799h-2.1881623v6.5624843h-2.9346587v-6.5624843h-2.3844853v-2.71464656h2.3844853v-2.06894381c0-2.35370075 1.4021268-3.65388953 3.5472594-3.65388953 1.0274195 0 2.1020458.18339113 2.1020458.18339113v2.31124327h-1.1841746c-1.1666079 0-1.5304719.72392291-1.5304719 1.46658548v1.76161346h2.6047835z" transform="translate(-3 -4)"/><path d="m19.2524871 8.44095745c.0107974.15100252.0107974.3020699.0107974.45307242 0 4.60591743-3.5056774 9.91302223-9.91305464 9.91302223-1.97399241 0-3.80771492-.5717149-5.35022986-1.564045.28047495.0323276.55012.043125.84135999.043125 1.62876504 0 3.12815493-.55012 4.32550735-1.48856-1.53171747-.0323924-2.81535241-1.0355524-3.25762735-2.4162673.21575494.03236.43147747.0539225.65802989.0539225.31280252 0 .62563747-.0431575.91684504-.1186425-1.53503602-.311185-2.70109548-1.6196081-2.7885216-3.2253265l-.00526828-.23719349c.46380505.25887999 1.00319242.42067999 1.57484252.44221009-.93844-.62563746-1.55324757-1.69351745-1.55324757-2.90163492 0-.64719999.17253263-1.24047746.47460253-1.75823746 1.71507998 2.11419746 4.29314734 3.49487997 7.18395238 3.64591492-.0539225-.25888-.0862825-.52852504-.0862825-.79820252 0-1.92003746 1.5533124-3.48411492 3.4841149-3.48411492 1.0031924 0 1.90924.42068 2.5457073 1.10023999.7874051-.15100252 1.5424501-.44224252 2.2112775-.84135999-.2589124.80903242-.8090324 1.48859241-1.5317175 1.92003746.701155-.07548505 1.380715-.26967747 2.00632-.53932252-.4745377.69032504-1.0678475 1.30516504-1.7474075 1.80136251z" transform="translate(-3 20)"/><path d="m20.5005809 7.63332424-.0224846.08718834c-.2457155 1.13885799-2.6329951 4.49901272-2.6363348 4.50232002l-.0985947.1668784c-.1251303.2323267-.1377294.398782.0985947.7030479l.0592817.0669432c.4017633.4267415 2.5936616 2.5591685 2.9389793 3.6351964.1626754.5511576-.1195505.8300762-.6773551.8300762h-1.9556724c-.7437288 0-.9628883-.5943475-2.2910102-1.9224694-1.1040012-1.0629708-1.6086875-1.2479804-1.9040408-1.2638239l-.044952-.0011991c-.6242432 0-.5113399.2091727-.5113399 2.4271296l-.0061726.1452138c-.0380833.3918596-.2776131.615149-1.3916627.615149-2.07188299 0-4.34959896-1.2584084-5.96659378-3.5792819-2.4271621-3.4000049-3.09122302-5.9732409-3.09122302-6.49119545 0-.29218032.11290333-.55449735.67070801-.55449735h1.95567237c.50135302 0 .69061687.21912713.88318805.76036272.95624124 2.78905588 2.56992872 5.22613998 3.23398963 5.22613998.24902285 0 .36189374-.1162107.36189374-.7470686v-2.88201785c-.0730208-1.32812183-.77693181-1.4376854-.77693181-1.90917513 0-.2158198.18592409-.44824112.49804569-.44824112h3.07458912c.4117307 0 .55119.22246689.55119.72051258v3.87480192c0 .4150381.1892314.561112.3120891.561112.2490229 0 .4581956-.1460739.9130838-.6009621 1.4078221-1.57383737 2.4039135-4.00096705 2.4039135-4.00096705.1228577-.29218032.3519393-.55449735.849985-.55449735h1.9556724c.5487929 0 .6939258.26339383.6134923.63332424z" transform="translate(-3 44)"/><path d="m18.8312674 7.13554433-2.2445454 10.58515697c-.1693226.7470685-.6109166.9329926-1.2384671.5810533l-3.4199137-2.5201242-1.6501979 1.5870991c-.1826167.1826168-.33533779.3353703-.68727711.3353703l.24568309-3.4830125 6.33847442-5.72752543c.2755788-.2457155-.059759-.38183502-.4283323-.13611951l-7.83591878 4.93395964-3.37341649-1.0558504c-.73380677-.229114-.74706853-.7338067.15272104-1.0857461l13.19490343-5.08337331c.6109165-.22911398 1.145505.13611952.9462868 1.06911214z" transform="translate(-3 68)"/><path d="m15.5357143 13.1428571c.84115 0 1.5573817.295663 2.1487165.8869978s.8869978 1.3075665.8869978 2.1487165c0 .8411501-.295663 1.5573817-.8869978 2.1487165s-1.3075665.8869978-2.1487165.8869978c-.8411501 0-1.5573817-.295663-2.1487165-.8869978s-.8869978-1.3075664-.8869978-2.1487165l.0047433-.1375557c.0031622-.0537573.0079055-.1154201.0142299-.1849889l-3.41517856-1.7075893c-.58184814.5439015-1.27120137.8158482-2.06808035.8158482-.84115004 0-1.55738172-.295663-2.14871652-.8869978s-.88699777-1.3075664-.88699777-2.1487165c0-.84115.29566297-1.5573817.88699777-2.14871649.5913348-.5913348 1.30756648-.88699777 2.14871652-.88699777.79687898 0 1.48623221.27194669 2.06808035.81584822l3.41517856-1.70758929-.0142299-.18498896c-.0031622-.0537573-.0047433-.09960906-.0047433-.13755568 0-.84115004.295663-1.55738172.8869978-2.14871652s1.3075664-.88699777 2.1487165-.88699777c.84115 0 1.5573817.29566297 2.1487165.88699777s.8869978 1.30756648.8869978 2.14871652-.295663 1.55738171-.8869978 2.14871652c-.5913348.59133475-1.3075665.88699775-2.1487165.88699775-.796879 0-1.4862322-.2719467-2.0680804-.8158482l-3.4151785 1.7075893.0177874.2596958.0011858.0628488c0 .0758933-.0063244.1834071-.0189732.3225447l3.4151785 1.7075893c.5818482-.5439016 1.2712014-.8158483 2.0680804-.8158483z" transform="translate(-3 92)"/></g></svg>