<svg height="33" viewBox="0 0 43 33" width="43" xmlns="http://www.w3.org/2000/svg"><path d="m208.644 2536.23c-9.394 4.392-15.006 12.566-15.006 21.594 0 6.344 3.904 10.98 9.272 10.98 4.636 0 8.296-3.416 8.296-7.93 0-3.416-2.196-6.222-5.49-7.076l-.963276-.22139c-2.840366-.67114-2.940724-.93619-2.940724-2.70661 0-4.27 3.172-8.296 9.272-11.712zm23.912 0 2.44 2.928c-5.970213 3.34332-9.135696 7.27096-9.267695 11.43978l-.004305.27222c0 1.952.122 2.074 3.904 2.928 3.294.854 5.49 3.66 5.49 7.076 0 4.514-3.66 7.93-8.296 7.93-5.368 0-9.272-4.636-9.272-10.98 0-9.028 5.612-17.202 15.006-21.594z" fill="#ff6100" transform="translate(-193 -2536)"/></svg>