<?xml version="1.0" encoding="UTF-8"?>
<svg width="17px" height="15px" viewBox="0 0 17 15" version="1.1" xmlns="http://www.w3.org/2000/svg" xmlns:xlink="http://www.w3.org/1999/xlink">
    <!-- Generator: Sketch 58 (84663) - https://sketch.com -->
    <title>icon-twetter</title>
    <desc>Created with Sketch.</desc>
    <g id="Specs" stroke="none" stroke-width="1" fill="none" fill-rule="evenodd">
        <g id="Desktop-1360" transform="translate(-552.000000, -201.000000)" fill="#303030" fill-rule="nonzero">
            <g id="Group-16" transform="translate(456.000000, 190.000000)">
                <g id="Group-12" transform="translate(71.000000, 0.000000)">
                    <path d="M40.2524871,15.1624628 C40.2632845,15.3134653 40.2632845,15.4645327 40.2632845,15.6155352 C40.2632845,20.2214527 36.7576071,25.5285575 30.3502299,25.5285575 C28.3762374,25.5285575 26.5425149,24.9568425 25,23.9645124 C25.2804749,23.99684 25.55012,24.0076375 25.84136,24.0076375 C27.470125,24.0076375 28.9695149,23.4575175 30.1668673,22.5190775 C28.6351499,22.4866851 27.3515149,21.4835251 26.90924,20.1028101 C27.1249949,20.1351701 27.3407175,20.1567327 27.5672699,20.1567327 C27.8800724,20.1567327 28.1929074,20.1135752 28.4841149,20.0380901 C26.9490789,19.7269051 25.7830194,18.4184821 25.6955933,16.8127637 L25.690325,16.5755702 C26.1541301,16.8344502 26.6935175,16.9962502 27.2651676,17.0177803 C26.3267276,16.3921428 25.71192,15.3242628 25.71192,14.1161453 C25.71192,13.4689453 25.8844526,12.8756679 26.1865225,12.3579079 C27.9016025,14.4721053 30.4796699,15.8527878 33.3704749,16.0038228 C33.3165524,15.7449428 33.2841924,15.4752977 33.2841924,15.2056203 C33.2841924,13.2855828 34.8375048,11.7215054 36.7683073,11.7215054 C37.7714997,11.7215054 38.6775473,12.1421853 39.3140146,12.8217453 C40.1014197,12.6707428 40.8564647,12.3795028 41.5252921,11.9803854 C41.2663797,12.7894178 40.7162597,13.4689778 39.9935746,13.9004228 C40.6947296,13.8249378 41.3742896,13.6307453 41.9998946,13.3611003 C41.5253569,14.0514253 40.9320471,14.6662653 40.2524871,15.1624628 Z" id="icon-twetter"></path>
                </g>
            </g>
        </g>
    </g>
</svg>