<svg height="29" viewBox="0 0 110 29" width="110" xmlns="http://www.w3.org/2000/svg"><g fill="none" fill-rule="evenodd"><g fill="#ff6100"><path d="m64.5182281 4.484375h2.5234375l1.5865531 8.0390625 2.9993844-8.0390625h2.2421875l-4.2909595 11.515625h-2.40625l-1.6577647-8.1796875-3.0453603 8.1796875h-2.2421875zm19.3450677 2.0390625h-6.09375l-.9075432 2.4453125h5.59375l-.7502341 2h-5.59375l-1.0995591 2.9609375h6.375l-.7693158 2.0703125h-8.7265625l4.2909595-11.515625h8.4453125zm4.4908698-2.0390625-.9396144 6.59375-.3567518 1.8359375 1.0067411-1.796875 3.7740001-6.6328125h2.5390625l-1.0958644 6.59375-.3333143 1.8359375 1.009545-1.765625 4.0290087-6.6640625h2.4453129l-7.5331474 11.515625h-2.296875l1.1184029-6.734375.4193584-2.2265625-1.2318584 2.2265625-3.8996529 6.734375h-2.234375l1.0253345-11.515625zm12.3021994 7.9609375c-.120769.5260443-.123898.9192695-.009385 1.1796875.215705.4739607.797509.7109375 1.745431.7109375.567711 0 1.051682-.0624994 1.451926-.1875.762361-.2395845 1.263415-.6848926 1.503178-1.3359375.144271-.3802102.087269-.6744781-.171009-.8828125-.225693-.1805565-.610727-.3425922-1.155113-.4861109l-1.331853-.3263891c-1.097223-.2708347-1.815677-.5651026-2.155383-.8828125-.5763163-.53125266-.6541093-1.36197352-.233382-2.4921875.384034-1.03125516 1.078636-1.88801742 2.083828-2.5703125 1.005191-.68229508 2.234335-1.0234375 3.687467-1.0234375 1.213548 0 2.128138.32161137 2.743799.96484375.61566.64323238.716029 1.5768168.301109 2.80078125h-2.3125c.220399-.6927118.103972-1.18489437-.349284-1.4765625-.302449-.1927093-.732314-.2890625-1.289608-.2890625-.619795 0-1.161959.12499875-1.626509.375s-.77959.59895609-.94513 1.046875c-.154488.41146039-.086552.71874898.203811.921875.181422.13541734.622103.29426992 1.322057.4765625l1.806432.4765625c.789531.20833437 1.34122.48697742 1.655084.8359375.486105.5416694.537557 1.3255157.154358 2.3515625-.392581 1.0520886-1.121146 1.9257778-2.185716 2.6210937-1.064571.695316-2.331216 1.0429688-3.799973 1.0429688-1.500008 0-2.5518826-.3424445-3.1556568-1.0273438-.6037741-.6848992-.6820578-1.626296-.2348532-2.8242187z" fill-rule="nonzero"/><path d="m10.0674579 0h48.9325421l-7.2639947 19.067986c-.4431496 1.1632678-1.5586445 1.932014-2.8034632 1.932014h-48.9325421l7.26399466-19.06798598c.44314963-1.16326778 1.55864454-1.93201402 2.80346324-1.93201402z"/><path d="m31.5 14-13.767 7h-8.233l-.5 1h6.767l-13.767 7 7.5-15z"/></g><text fill="#fff" font-family="Helvetica-Bold, Helvetica" font-size="16" font-weight="bold"><tspan x="12" y="16">24</tspan></text><text fill="#fff" font-family="Helvetica-Bold, Helvetica" font-size="16" font-weight="bold"><tspan x="32" y="16">/</tspan></text><text fill="#fff" font-family="Helvetica-Bold, Helvetica" font-size="16" font-weight="bold"><tspan x="39" y="16">7</tspan></text></g></svg>