<?xml version="1.0" encoding="UTF-8"?>
<svg width="43px" height="33px" viewBox="0 0 43 33" version="1.1" xmlns="http://www.w3.org/2000/svg" xmlns:xlink="http://www.w3.org/1999/xlink">
    <!-- Generator: Sketch 58 (84663) - https://sketch.com -->
    <title>icon-quote</title>
    <desc>Created with Sketch.</desc>
    <g id="Specs" stroke="none" stroke-width="1" fill="none" fill-rule="evenodd">
        <g id="Desktop-1360" transform="translate(-193.000000, -2536.000000)" fill="#FF6100" fill-rule="nonzero">
            <path d="M208.644,2536.23 C199.25,2540.622 193.638,2548.796 193.638,2557.824 C193.638,2564.168 197.542,2568.804 202.91,2568.804 C207.546,2568.804 211.206,2565.388 211.206,2560.874 C211.206,2557.458 209.01,2554.652 205.716,2553.798 L204.752724,2553.57661 C201.912358,2552.90547 201.812,2552.64042 201.812,2550.87 C201.812,2546.6 204.984,2542.574 211.084,2539.158 L208.644,2536.23 Z M232.556,2536.23 L234.996,2539.158 C229.025787,2542.50132 225.860304,2546.42896 225.728305,2550.59778 L225.724,2550.87 C225.724,2552.822 225.846,2552.944 229.628,2553.798 C232.922,2554.652 235.118,2557.458 235.118,2560.874 C235.118,2565.388 231.458,2568.804 226.822,2568.804 C221.454,2568.804 217.55,2564.168 217.55,2557.824 C217.55,2548.796 223.162,2540.622 232.556,2536.23 Z" id="icon-quote"></path>
        </g>
    </g>
</svg>