<?xml version="1.0" encoding="UTF-8"?>
<svg width="13px" height="9px" viewBox="0 0 13 9" version="1.1" xmlns="http://www.w3.org/2000/svg" xmlns:xlink="http://www.w3.org/1999/xlink">
    <!-- Generator: Sketch 58 (84663) - https://sketch.com -->
    <title>icon-views</title>
    <desc>Created with Sketch.</desc>
    <g id="Specs" stroke="none" stroke-width="1" fill="none" fill-rule="evenodd">
        <g id="Desktop-1360" transform="translate(-336.000000, -203.000000)" fill="#909090" fill-rule="nonzero">
            <g id="Group" transform="translate(191.000000, 199.000000)">
                <path d="M157.071429,8.82142857 C156.336306,7.68005382 155.414998,6.82645372 154.307478,6.26060268 C154.602494,6.76358138 154.75,7.30766076 154.75,7.89285714 C154.75,8.78757888 154.432016,9.55291721 153.796038,10.1888951 C153.16006,10.824873 152.394722,11.1428571 151.5,11.1428571 C150.605278,11.1428571 149.83994,10.824873 149.203962,10.1888951 C148.567984,9.55291721 148.25,8.78757888 148.25,7.89285714 C148.25,7.30766076 148.397506,6.76358138 148.692522,6.26060268 C147.585002,6.82645372 146.663694,7.68005382 145.928571,8.82142857 C146.571804,9.81287698 147.37825,10.6023966 148.347935,11.1900112 C149.31762,11.7776257 150.368298,12.0714286 151.5,12.0714286 C152.631702,12.0714286 153.68238,11.7776257 154.652065,11.1900112 C155.62175,10.6023966 156.428196,9.81287698 157.071429,8.82142857 Z M151.746652,6.28236607 C151.81436,6.2146574 151.848214,6.13244096 151.848214,6.03571429 C151.848214,5.93898761 151.81436,5.85677117 151.746652,5.7890625 C151.678943,5.72135383 151.596727,5.6875 151.5,5.6875 C150.895458,5.6875 150.376769,5.90392269 149.943917,6.33677455 C149.511066,6.76962642 149.294643,7.28831543 149.294643,7.89285714 C149.294643,7.98958382 149.328497,8.07180026 149.396205,8.13950893 C149.463914,8.2072176 149.54613,8.24107143 149.642857,8.24107143 C149.739584,8.24107143 149.8218,8.2072176 149.889509,8.13950893 C149.957218,8.07180026 149.991071,7.98958382 149.991071,7.89285714 C149.991071,7.47693244 150.138577,7.12146725 150.433594,6.82645089 C150.72861,6.53143454 151.084075,6.38392857 151.5,6.38392857 C151.596727,6.38392857 151.678943,6.35007474 151.746652,6.28236607 Z M157.854911,8.32087054 C157.951637,8.49014222 158,8.65699323 158,8.82142857 C158,8.98586392 157.951637,9.15271493 157.854911,9.32198661 C157.177824,10.4343434 156.267398,11.3254245 155.123605,11.9952567 C153.979812,12.6650889 152.771956,13 151.5,13 C150.228044,13 149.020188,12.6638798 147.876395,11.9916295 C146.732602,11.3193791 145.822176,10.429507 145.145089,9.32198661 C145.048363,9.15271493 145,8.98586392 145,8.82142857 C145,8.65699323 145.048363,8.49014222 145.145089,8.32087054 C145.822176,7.21335012 146.732602,6.32347806 147.876395,5.65122768 C149.020188,4.97897729 150.228044,4.64285714 151.5,4.64285714 C152.771956,4.64285714 153.979812,4.97897729 155.123605,5.65122768 C156.267398,6.32347806 157.177824,7.21335012 157.854911,8.32087054 Z" id="icon-views"></path>
            </g>
        </g>
    </g>
</svg>