<?xml version="1.0" encoding="UTF-8"?>
<svg width="15px" height="16px" viewBox="0 0 15 16" version="1.1" xmlns="http://www.w3.org/2000/svg" xmlns:xlink="http://www.w3.org/1999/xlink">
    <!-- Generator: Sketch 58 (84663) - https://sketch.com -->
    <title>icon-share</title>
    <desc>Created with Sketch.</desc>
    <g id="Specs" stroke="none" stroke-width="1" fill="none" fill-rule="evenodd">
        <g id="Desktop-1360" transform="translate(-766.000000, -201.000000)" fill="#303030" fill-rule="nonzero">
            <g id="Group-16" transform="translate(456.000000, 190.000000)">
                <g id="Group-15" transform="translate(284.000000, 0.000000)">
                    <path d="M37.5357143,20.1428571 C38.3768643,20.1428571 39.093096,20.4385201 39.6844308,21.0298549 C40.2757656,21.6211897 40.5714286,22.3374214 40.5714286,23.1785714 C40.5714286,24.0197215 40.2757656,24.7359531 39.6844308,25.3272879 C39.093096,25.9186227 38.3768643,26.2142857 37.5357143,26.2142857 C36.6945642,26.2142857 35.9783326,25.9186227 35.3869978,25.3272879 C34.795663,24.7359531 34.5,24.0197215 34.5,23.1785714 L34.5047433,23.0410157 C34.5079055,22.9872584 34.5126488,22.9255956 34.5189732,22.8560268 L31.1037946,21.1484375 C30.5219465,21.692339 29.8325933,21.9642857 29.0357143,21.9642857 C28.1945642,21.9642857 27.4783326,21.6686227 26.8869978,21.0772879 C26.295663,20.4859531 26,19.7697215 26,18.9285714 C26,18.0874214 26.295663,17.3711897 26.8869978,16.7798549 C27.4783326,16.1885201 28.1945642,15.8928571 29.0357143,15.8928571 C29.8325933,15.8928571 30.5219465,16.1648038 31.1037946,16.7087054 L34.5189732,15.0011161 L34.5047433,14.8161271 C34.5015811,14.7623698 34.5,14.716518 34.5,14.6785714 C34.5,13.8374214 34.795663,13.1211897 35.3869978,12.5298549 C35.9783326,11.9385201 36.6945642,11.6428571 37.5357143,11.6428571 C38.3768643,11.6428571 39.093096,11.9385201 39.6844308,12.5298549 C40.2757656,13.1211897 40.5714286,13.8374214 40.5714286,14.6785714 C40.5714286,15.5197215 40.2757656,16.2359531 39.6844308,16.8272879 C39.093096,17.4186227 38.3768643,17.7142857 37.5357143,17.7142857 C36.7388353,17.7142857 36.0494821,17.442339 35.4676339,16.8984375 L32.0524554,18.6060268 L32.0702428,18.8657226 L32.0702428,18.8657226 L32.0714286,18.9285714 C32.0714286,19.0044647 32.0651042,19.1119785 32.0524554,19.2511161 L35.4676339,20.9587054 C36.0494821,20.4148038 36.7388353,20.1428571 37.5357143,20.1428571 Z" id="icon-share"></path>
                </g>
            </g>
        </g>
    </g>
</svg>