<?xml version="1.0" encoding="UTF-8"?>
<svg width="12px" height="12px" viewBox="0 0 12 12" version="1.1" xmlns="http://www.w3.org/2000/svg" xmlns:xlink="http://www.w3.org/1999/xlink">
    <!-- Generator: Sketch 58 (84663) - https://sketch.com -->
    <title>icon-time</title>
    <desc>Created with Sketch.</desc>
    <g id="Specs" stroke="none" stroke-width="1" fill="none" fill-rule="evenodd">
        <g id="Desktop-1360" transform="translate(-191.000000, -201.000000)" fill="#909090" fill-rule="nonzero">
            <g id="Group" transform="translate(191.000000, 199.000000)">
                <path d="M6.5,5.80357143 L6.5,9.05357143 C6.5,9.1212801 6.47823682,9.1768971 6.43470982,9.22042411 C6.39118282,9.26395111 6.33556581,9.28571429 6.26785714,9.28571429 L3.94642857,9.28571429 C3.8787199,9.28571429 3.8231029,9.26395111 3.77957589,9.22042411 C3.73604889,9.1768971 3.71428571,9.1212801 3.71428571,9.05357143 L3.71428571,8.58928571 C3.71428571,8.52157704 3.73604889,8.46596004 3.77957589,8.42243304 C3.8231029,8.37890603 3.8787199,8.35714286 3.94642857,8.35714286 L5.57142857,8.35714286 L5.57142857,5.80357143 C5.57142857,5.73586276 5.59319175,5.68024575 5.63671875,5.63671875 C5.68024575,5.59319175 5.73586276,5.57142857 5.80357143,5.57142857 L6.26785714,5.57142857 C6.33556581,5.57142857 6.39118282,5.59319175 6.43470982,5.63671875 C6.47823682,5.68024575 6.5,5.73586276 6.5,5.80357143 Z M8.98828125,10.3376116 C9.34133361,9.73306989 9.51785714,9.07292025 9.51785714,8.35714286 C9.51785714,7.64136547 9.34133361,6.98121582 8.98828125,6.37667411 C8.63522889,5.77213239 8.15643903,5.29334254 7.55189732,4.94029018 C6.94735561,4.58723782 6.28720596,4.41071429 5.57142857,4.41071429 C4.85565118,4.41071429 4.19550153,4.58723782 3.59095982,4.94029018 C2.98641811,5.29334254 2.50762825,5.77213239 2.15457589,6.37667411 C1.80152353,6.98121582 1.625,7.64136547 1.625,8.35714286 C1.625,9.07292025 1.80152353,9.73306989 2.15457589,10.3376116 C2.50762825,10.9421533 2.98641811,11.4209432 3.59095982,11.7739955 C4.19550153,12.1270479 4.85565118,12.3035714 5.57142857,12.3035714 C6.28720596,12.3035714 6.94735561,12.1270479 7.55189732,11.7739955 C8.15643903,11.4209432 8.63522889,10.9421533 8.98828125,10.3376116 Z M10.3956473,5.56417411 C10.8937897,6.41536884 11.1428571,7.34634911 11.1428571,8.35714286 C11.1428571,9.3679366 10.8937897,10.3001259 10.3956473,11.1537388 C9.89750495,12.0073517 9.22163745,12.6832192 8.36802455,13.1813616 C7.51441165,13.679504 6.58222232,13.9285714 5.57142857,13.9285714 C4.56063483,13.9285714 3.62844549,13.679504 2.77483259,13.1813616 C1.92121969,12.6832192 1.24535219,12.0073517 0.747209821,11.1537388 C0.24906745,10.3001259 0,9.3679366 0,8.35714286 C0,7.34634911 0.24906745,6.41415977 0.747209821,5.56054688 C1.24535219,4.70693398 1.92121969,4.03106648 2.77483259,3.53292411 C3.62844549,3.03478174 4.56063483,2.78571429 5.57142857,2.78571429 C6.58222232,2.78571429 7.51441165,3.03478174 8.36802455,3.53292411 C9.22163745,4.03106648 9.89750495,4.70814304 10.3956473,5.56417411 Z" id="icon-time"></path>
            </g>
        </g>
    </g>
</svg>